<svg width="57" height="20" viewBox="0 0 57 20" fill="none" xmlns="http://www.w3.org/2000/svg">
<path d="M0.98 15V4.92H2.499L5.985 12.06L9.471 4.92H10.99V15H9.415V8.539L6.321 15H5.649L2.562 8.539V15H0.98ZM16.2956 15.21C15.5396 15.21 14.8792 15.0397 14.3146 14.699C13.7499 14.3583 13.3112 13.8893 12.9986 13.292C12.6906 12.69 12.5366 11.9993 12.5366 11.22C12.5366 10.4267 12.6952 9.73133 13.0126 9.134C13.3299 8.53667 13.7709 8.07 14.3356 7.734C14.9002 7.398 15.5536 7.23 16.2956 7.23C17.0562 7.23 17.7189 7.40033 18.2836 7.741C18.8482 8.08167 19.2869 8.553 19.5996 9.155C19.9122 9.75233 20.0686 10.4407 20.0686 11.22C20.0686 12.004 19.9099 12.697 19.5926 13.299C19.2799 13.8963 18.8412 14.3653 18.2766 14.706C17.7119 15.042 17.0516 15.21 16.2956 15.21ZM16.2956 13.628C16.9676 13.628 17.4669 13.404 17.7936 12.956C18.1202 12.508 18.2836 11.9293 18.2836 11.22C18.2836 10.4873 18.1179 9.904 17.7866 9.47C17.4552 9.03133 16.9582 8.812 16.2956 8.812C15.8429 8.812 15.4696 8.91467 15.1756 9.12C14.8862 9.32067 14.6716 9.603 14.5316 9.967C14.3916 10.3263 14.3216 10.744 14.3216 11.22C14.3216 11.9527 14.4872 12.5383 14.8186 12.977C15.1546 13.411 15.6469 13.628 16.2956 13.628ZM21.6109 15V7.44H23.1019V9.281L22.9199 9.043C23.0132 8.791 23.1369 8.56233 23.2909 8.357C23.4495 8.147 23.6385 7.97433 23.8579 7.839C24.0445 7.713 24.2499 7.615 24.4739 7.545C24.7025 7.47033 24.9359 7.426 25.1739 7.412C25.4119 7.39333 25.6429 7.40267 25.8669 7.44V9.015C25.6429 8.94967 25.3839 8.92867 25.0899 8.952C24.8005 8.97533 24.5392 9.057 24.3059 9.197C24.0725 9.323 23.8812 9.484 23.7319 9.68C23.5872 9.876 23.4799 10.1 23.4099 10.352C23.3399 10.5993 23.3049 10.8677 23.3049 11.157V15H21.6109ZM30.5029 15.21C29.7376 15.21 29.0656 15.0443 28.4869 14.713C27.9083 14.3817 27.4556 13.922 27.1289 13.334C26.8069 12.746 26.6459 12.0693 26.6459 11.304C26.6459 10.478 26.8046 9.76167 27.1219 9.155C27.4393 8.54367 27.8803 8.07 28.4449 7.734C29.0096 7.398 29.6629 7.23 30.4049 7.23C31.1889 7.23 31.8539 7.41433 32.3999 7.783C32.9506 8.147 33.3589 8.66267 33.6249 9.33C33.8909 9.99733 33.9913 10.7837 33.9259 11.689H32.2529V11.073C32.2483 10.2517 32.1036 9.652 31.8189 9.274C31.5343 8.896 31.0863 8.707 30.4749 8.707C29.7843 8.707 29.2709 8.92167 28.9349 9.351C28.5989 9.77567 28.4309 10.3987 28.4309 11.22C28.4309 11.9853 28.5989 12.578 28.9349 12.998C29.2709 13.418 29.7609 13.628 30.4049 13.628C30.8203 13.628 31.1773 13.537 31.4759 13.355C31.7793 13.1683 32.0126 12.9 32.1759 12.55L33.8419 13.054C33.5526 13.7353 33.1046 14.265 32.4979 14.643C31.8959 15.021 31.2309 15.21 30.5029 15.21ZM27.8989 11.689V10.415H33.0999V11.689H27.8989Z" fill="#18191F"/>
<path fill-rule="evenodd" clip-rule="evenodd" d="M42.9697 8.21967C43.2626 7.92678 43.7374 7.92678 44.0303 8.21967L48 12.1893L51.9697 8.21967C52.2626 7.92678 52.7374 7.92678 53.0303 8.21967C53.3232 8.51256 53.3232 8.98744 53.0303 9.28033L48.5303 13.7803C48.2374 14.0732 47.7626 14.0732 47.4697 13.7803L42.9697 9.28033C42.6768 8.98744 42.6768 8.51256 42.9697 8.21967Z" fill="#18191F"/>
</svg>
